# xmcd
#
# Track frame offsets:
#	150
#	19757
#	31946
#	49682
#	60551
#	70420
#	80286
#	99072
#	114384
#	124564
#	146342
#
# Disc length: 1955 seconds
#
# Revision: 1
# Processed by: cddbd v1.5.2PL0 Copyright (c) Steve Scherf et al.
# Submitted via: audiograbber 1.83.01
#
DISCID=8107a10b
DTITLE=JJ Cale - #8
DYEAR=1983
DGENRE=
TTITLE0=Money Talks
TTITLE1=Losers
TTITLE2=Hard Times
TTITLE3=Takin Care Of Business
TTITLE4=Reality
TTITLE5=People Lie
TTITLE6=Unemployment
TTITLE7=Trouble In The City
TTITLE8=Teardrops In My Tequila
TTITLE9=Living Here Too
TTITLE10=Data Track
EXTD=
EXTT0=
EXTT1=
EXTT2=
EXTT3=
EXTT4=
EXTT5=
EXTT6=
EXTT7=
EXTT8=
EXTT9=
EXTT10=
PLAYORDER=
